<svg width="485" height="384" viewBox="0 0 485 384" fill="none" xmlns="http://www.w3.org/2000/svg">
<path fill-rule="evenodd" clip-rule="evenodd" d="M480 30.4337C483.021 27.2013 484.87 22.8601 484.87 18.087C484.87 8.09781 476.772 0 466.783 0C456.793 0 448.696 8.09781 448.696 18.087C448.696 22.8601 450.545 27.2013 453.565 30.4337V163.207L402.783 212.174L402.101 307.639C399.072 310.872 397.217 315.22 397.217 320C397.217 329.989 405.315 338.087 415.304 338.087C425.294 338.087 433.391 329.989 433.391 320C433.391 315.605 431.824 311.576 429.217 308.442V223.304L480 171.826V30.4337ZM0 383.304V108.522L107.484 10.4348H283.826L351.304 73.7391V6.95651H429.217V141.383C432.647 144.675 434.783 149.305 434.783 154.435C434.783 164.424 426.685 172.522 416.696 172.522C406.707 172.522 398.609 164.424 398.609 154.435C398.609 150.04 400.176 146.011 402.783 142.877V33.3913H377.739L378.435 356.174H453.565V246.086C450.545 242.854 448.696 238.512 448.696 233.739C448.696 223.75 456.793 215.652 466.783 215.652C476.772 215.652 484.87 223.75 484.87 233.739C484.87 238.512 483.021 242.854 480 246.086V382.609H262.957V285.217H129.391V353.566C132.412 356.799 134.261 361.14 134.261 365.913C134.261 375.902 126.163 384 116.174 384C106.185 384 98.087 375.902 98.087 365.913C98.087 361.14 99.9358 356.799 102.957 353.566V257.391L262.957 258.087V163.207L225.391 130.087H177.216C173.984 133.108 169.643 134.957 164.87 134.957C154.88 134.957 146.783 126.859 146.783 116.87C146.783 106.88 154.88 98.7826 164.87 98.7826C169.643 98.7826 173.984 100.632 177.216 103.652H233.043L289.391 151.652V356.174H352L353.391 240L340.174 252.522V308.34C343.604 311.631 345.739 316.262 345.739 321.391C345.739 331.38 337.641 339.478 327.652 339.478C317.663 339.478 309.565 331.38 309.565 321.391C309.565 316.618 311.414 312.277 314.435 309.045V240L351.304 203.13L352 111.304L270.609 36.1739H120.348L26.4348 121.043V355.478H52.8696V147.303C49.8489 144.071 48 139.73 48 134.957C48 124.967 56.0978 116.87 66.0869 116.87C76.0761 116.87 84.1739 124.967 84.1739 134.957C84.1739 139.73 82.325 144.071 79.3043 147.303V383.304H0ZM220.522 239.304C216.127 239.304 212.098 237.737 208.964 235.13H102.957V86.9565L134.957 57.0435H258.087L340.174 130.087V163.644C343.604 166.936 345.739 171.566 345.739 176.696C345.739 186.685 337.641 194.783 327.652 194.783C317.663 194.783 309.565 186.685 309.565 176.696C309.565 171.923 311.414 167.581 314.435 164.349V142.609L244.87 81.3913L145.391 83.4782L129.391 99.4782V208.696H207.47C210.762 205.266 215.392 203.13 220.522 203.13C230.511 203.13 238.609 211.228 238.609 221.217C238.609 231.207 230.511 239.304 220.522 239.304Z" fill="white"/>
</svg>
